<?xml version="1.0" standalone="no"?>
<!DOCTYPE svg PUBLIC "-//W3C//DTD SVG 20010904//EN"
 "http://www.w3.org/TR/2001/REC-SVG-20010904/DTD/svg10.dtd">
<svg version="1.0" xmlns="http://www.w3.org/2000/svg"
 width="200.000000pt" height="200.000000pt" viewBox="0 0 200.000000 200.000000"
 preserveAspectRatio="xMidYMid meet">

<g transform="translate(0.000000,200.000000) scale(0.100000,-0.100000)"
fill="#000000" stroke="none">
<path d="M480 1040 l0 -850 480 0 480 0 0 850 0 850 -480 0 -480 0 0 -850z
m860 0 l0 -750 -380 0 -380 0 0 750 0 750 380 0 380 0 0 -750z"/>
<path d="M668 1717 l22 -23 0 -588 0 -589 31 -63 c17 -34 39 -70 49 -79 16
-15 17 -13 4 37 -31 119 -4 253 72 355 23 30 24 39 26 220 l3 188 91 -177 c60
-119 87 -181 80 -188 -7 -7 31 -10 114 -10 l123 0 -20 23 c-11 12 -61 102
-110 199 l-91 177 44 26 c147 86 169 311 44 436 -69 69 -112 79 -329 79 l-174
0 21 -23z m356 -182 c21 -20 26 -33 26 -75 0 -41 -5 -56 -25 -75 -21 -22 -33
-25 -90 -25 l-65 0 0 100 0 100 64 0 c53 0 67 -4 90 -25z"/>
</g>
</svg>
